<svg xmlns="http://www.w3.org/2000/svg" xmlns:xlink="http://www.w3.org/1999/xlink" contentStyleType="text/css" data-diagram-type="DESCRIPTION" height="623px" preserveAspectRatio="none" style="width:272px;height:623px;background:#FFFFFF;" version="1.1" viewBox="0 0 272 623" width="272px" zoomAndPan="magnify"><defs/><g><!--cluster F1 Betting Backend--><g class="cluster" data-entity="F1 Betting Backend" data-source-line="10" data-uid="ent0003" id="cluster_F1 Betting Backend"><rect fill="none" height="372.93" rx="2.5" ry="2.5" style="stroke:#181818;stroke-width:1;" width="259" x="7" y="144.99"/><text fill="#000000" font-family="sans-serif" font-size="14" font-weight="bold" lengthAdjust="spacing" textLength="137.8877" x="67.5562" y="160.5252">F1 Betting Backend</text></g><!--entity WebAPI--><g class="entity" data-entity="WebAPI" data-source-line="11" data-uid="ent0004" id="entity_WebAPI"><rect fill="#DDDDFF" height="52.9766" rx="2.5" ry="2.5" style="stroke:#181818;stroke-width:0.5;" width="78.6934" x="75.65" y="179.99"/><text fill="#000000" font-family="sans-serif" font-size="14" font-style="italic" lengthAdjust="spacing" textLength="36.1006" x="96.9464" y="203.5252">&#171;API&#187;</text><text fill="#000000" font-family="sans-serif" font-size="14" lengthAdjust="spacing" textLength="58.6934" x="85.65" y="220.0134">REST API</text></g><!--entity Service--><g class="entity" data-entity="Service" data-source-line="12" data-uid="ent0005" id="entity_Service"><rect fill="#DDFFDD" height="52.9766" rx="2.5" ry="2.5" style="stroke:#181818;stroke-width:0.5;" width="119.5518" x="55.22" y="309.97"/><text fill="#000000" font-family="sans-serif" font-size="14" font-style="italic" lengthAdjust="spacing" textLength="62.002" x="83.9949" y="333.5052">&#171;Service&#187;</text><text fill="#000000" font-family="sans-serif" font-size="14" lengthAdjust="spacing" textLength="99.5518" x="65.22" y="349.9934">Betting Service</text></g><!--entity DB--><g class="entity" data-entity="DB" data-source-line="13" data-uid="ent0006" id="entity_DB"><path d="M22.95,449.95 C22.95,439.95 54.0047,439.95 54.0047,439.95 C54.0047,439.95 85.0594,439.95 85.0594,449.95 L85.0594,491.9266 C85.0594,501.9266 54.0047,501.9266 54.0047,501.9266 C54.0047,501.9266 22.95,501.9266 22.95,491.9266 L22.95,449.95" fill="#F1F1F1" style="stroke:#181818;stroke-width:0.5;"/><path d="M22.95,449.95 C22.95,459.95 54.0047,459.95 54.0047,459.95 C54.0047,459.95 85.0594,459.95 85.0594,449.95" fill="none" style="stroke:#181818;stroke-width:0.5;"/><text fill="#000000" font-family="sans-serif" font-size="14" font-style="italic" lengthAdjust="spacing" textLength="33.209" x="37.4002" y="477.4852">&#171;DB&#187;</text><text fill="#000000" font-family="sans-serif" font-size="14" lengthAdjust="spacing" textLength="42.1094" x="32.95" y="493.9734">H2 DB</text></g><!--entity Adapter--><g class="entity" data-entity="Adapter" data-source-line="14" data-uid="ent0007" id="entity_Adapter"><rect fill="#FFF0AA" height="52.9766" rx="2.5" ry="2.5" style="stroke:#181818;stroke-width:0.5;" width="130.7422" x="119.63" y="444.45"/><text fill="#000000" font-family="sans-serif" font-size="14" font-style="italic" lengthAdjust="spacing" textLength="68.4482" x="150.777" y="467.9852">&#171;Adapter&#187;</text><text fill="#000000" font-family="sans-serif" font-size="14" lengthAdjust="spacing" textLength="110.7422" x="129.63" y="484.4734">OpenF1 Adapter</text></g><!--entity User--><g class="entity" data-entity="User" data-source-line="8" data-uid="ent0002" id="entity_User"><ellipse cx="115.0026" cy="14" fill="#F1F1F1" rx="8" ry="8" style="stroke:#181818;stroke-width:0.5;"/><path d="M115.0026,22 L115.0026,49 M102.0026,30 L128.0026,30 M115.0026,49 L102.0026,64 M115.0026,49 L128.0026,64" fill="none" style="stroke:#181818;stroke-width:0.5;"/><text fill="#000000" font-family="sans-serif" font-size="14" lengthAdjust="spacing" textLength="30.3652" x="99.82" y="79.0352">User</text></g><!--entity OpenF1--><g class="entity" data-entity="OpenF1" data-source-line="17" data-uid="ent0008" id="entity_OpenF1"><rect fill="#F1F1F1" height="36.4883" rx="2.5" ry="2.5" style="stroke:#181818;stroke-width:0.5;" width="98.3945" x="135.8" y="580.92"/><text fill="#000000" font-family="sans-serif" font-size="14" lengthAdjust="spacing" textLength="78.3945" x="145.8" y="604.4552">OpenF1 API</text></g><!--link User to WebAPI--><g class="link" data-entity-1="User" data-entity-2="WebAPI" data-source-line="19" data-uid="lnk9" id="link_User_WebAPI"><path d="M115,82.43 C115,112.31 115,147.28 115,173.57" fill="none" id="User-to-WebAPI" style="stroke:#181818;stroke-width:1;"/><polygon fill="#181818" points="115,179.57,119,170.57,115,174.57,111,170.57,115,179.57" style="stroke:#181818;stroke-width:1;"/><text fill="#000000" font-family="sans-serif" font-size="13" lengthAdjust="spacing" textLength="29.5039" x="116" y="125.5584">Uses</text></g><!--link WebAPI to Service--><g class="link" data-entity-1="WebAPI" data-entity-2="Service" data-source-line="20" data-uid="lnk10" id="link_WebAPI_Service"><path d="M115,233.38 C115,255.58 115,281.41 115,303.6" fill="none" id="WebAPI-to-Service" style="stroke:#181818;stroke-width:1;"/><polygon fill="#181818" points="115,309.6,119,300.6,115,304.6,111,300.6,115,309.6" style="stroke:#181818;stroke-width:1;"/><text fill="#000000" font-family="sans-serif" font-size="13" lengthAdjust="spacing" textLength="61.9976" x="116" y="276.5384">Delegates</text></g><!--link Service to DB--><g class="link" data-entity-1="Service" data-entity-2="DB" data-source-line="21" data-uid="lnk11" id="link_Service_DB"><path d="M90.63,363.18 C83.37,372.04 76.02,382.4 71,392.95 C64.06,407.53 60.9056,419.1132 58.4456,433.7332" fill="none" id="Service-to-DB" style="stroke:#181818;stroke-width:1;"/><polygon fill="#181818" points="57.45,439.65,62.8879,431.4385,58.2797,434.7193,54.9988,430.111,57.45,439.65" style="stroke:#181818;stroke-width:1;"/><text fill="#000000" font-family="sans-serif" font-size="13" lengthAdjust="spacing" textLength="48.2485" x="72" y="406.5184">Persists</text></g><!--link Service to Adapter--><g class="link" data-entity-1="Service" data-entity-2="Adapter" data-source-line="22" data-uid="lnk12" id="link_Service_Adapter"><path d="M128.66,363.31 C141,386.66 156.2473,415.5148 168.5673,438.8348" fill="none" id="Service-to-Adapter" style="stroke:#181818;stroke-width:1;"/><polygon fill="#181818" points="171.37,444.14,170.7027,434.3138,169.0344,439.719,163.6291,438.0507,171.37,444.14" style="stroke:#181818;stroke-width:1;"/><text fill="#000000" font-family="sans-serif" font-size="13" lengthAdjust="spacing" textLength="78.4888" x="153.1" y="406.5184">Fetch Events</text></g><!--link Adapter to OpenF1--><g class="link" data-entity-1="Adapter" data-entity-2="OpenF1" data-source-line="23" data-uid="lnk13" id="link_Adapter_OpenF1"><path d="M185,497.78 C185,522.45 185,552.95 185,574.47" fill="none" id="Adapter-to-OpenF1" style="stroke:#181818;stroke-width:1;"/><polygon fill="#181818" points="185,580.47,189,571.47,185,575.47,181,571.47,185,580.47" style="stroke:#181818;stroke-width:1;"/><text fill="#000000" font-family="sans-serif" font-size="13" lengthAdjust="spacing" textLength="58.2905" x="186" y="547.4884">REST Call</text></g><!--SRC=[RP31QiCm38RlVWgHdGlRZgK4uhgcFQsi6pkhYKX3CoVONYzZxpufSTO5abFa_vFvVeThuthq-0cUoeYkRWc-5O36ybhxxijLswxj_6PJ70zv3W-6FskNW1FvMrFI25bhp19ajEIIBkT5XNqaFqBsiIZKZr9Onix3Uo2lrDqoiq-WASR6rSCzvAfiKF-7lEvERy3c6Km5CC07dVb_3auNfHB2t_lmJXfugSA8Pmoyity6euKSIZ5azFpIbvuSIwPEWyDVFSRJ80qNbaIQeN5KIjh3QfKdUrZBUmIL9WcI8YU6MgenSZoTIMuqHqVoeGbndYGHZYt5yWAx6pb6fcD1ajKQXXVTOjl-0W00]--></g></svg>